<svg width="600.000000" height="691.666626" viewBox="0 0 600 691.667" fill="none" xmlns="http://www.w3.org/2000/svg" xmlns:xlink="http://www.w3.org/1999/xlink">
	<desc>
	</desc>
	<defs/>
	<path id="path" d="M158.33 191.66C158.33 141.32 172.93 106.76 195.35 84.74C217.87 62.63 251.5 50 295.72 50C351.31 50 390.43 69.8 412.07 104.81C419.32 116.55 434.73 120.19 446.48 112.93C458.22 105.67 461.85 90.26 454.59 78.52C421.49 24.96 363.63 0 295.72 0C242.11 0 194.54 15.46 160.32 49.07C126 82.77 108.33 131.55 108.33 191.66L108.33 201.3C45.53 224.58 0 287.44 0 361.64C0 489.58 98.94 563.38 183.18 626.22C191.94 632.75 200.54 639.17 208.85 645.51C240 669.28 270 691.66 300 691.66C330 691.66 360 669.28 391.14 645.51C399.46 639.17 408.05 632.75 416.81 626.22C501.05 563.38 600 489.58 600 361.64C600 220.39 434.99 120.23 300 256.02C253.68 209.43 203.83 190.57 158.33 191.66ZM300 333.33C313.8 333.33 325 344.52 325 358.33L325 441.66C325 455.47 313.8 466.66 300 466.66C286.19 466.66 275 455.47 275 441.66L275 358.33C275 344.52 286.19 333.33 300 333.33Z" fill="#FE6262" fill-opacity="1.000000" fill-rule="evenodd"/>
</svg>
